<?xml version="1.0" encoding="UTF-8" standalone="no"?>
<!-- Created with Inkscape (http://www.inkscape.org/) -->

<svg
   xmlns:dc="http://purl.org/dc/elements/1.1/"
   xmlns:cc="http://creativecommons.org/ns#"
   xmlns:rdf="http://www.w3.org/1999/02/22-rdf-syntax-ns#"
   xmlns:svg="http://www.w3.org/2000/svg"
   xmlns="http://www.w3.org/2000/svg"
   xmlns:sodipodi="http://sodipodi.sourceforge.net/DTD/sodipodi-0.dtd"
   xmlns:inkscape="http://www.inkscape.org/namespaces/inkscape"
   version="1.1"
   id="svg2106"
   width="24"
   height="24"
   viewBox="0 0 24 24"
   sodipodi:docname="signal-app.svg"
   inkscape:version="0.92.3 (2405546, 2018-03-11)">
  <metadata
     id="metadata2112">
    <rdf:RDF>
      <cc:Work
         rdf:about="">
        <dc:format>image/svg+xml</dc:format>
        <dc:type
           rdf:resource="http://purl.org/dc/dcmitype/StillImage" />
        <dc:title />
      </cc:Work>
    </rdf:RDF>
  </metadata>
  <defs
     id="defs2110">
    <clipPath
       clipPathUnits="userSpaceOnUse"
       id="clipPath2682">
      <rect
         style="opacity:1;fill:none;fill-opacity:1;stroke:#000000;stroke-width:0.14498146;stroke-miterlimit:4;stroke-dasharray:none;stroke-dashoffset:0;stroke-opacity:1"
         id="rect2684"
         width="21.574905"
         height="22.798611"
         x="1.2189358"
         y="0.71838397" />
    </clipPath>
  </defs>
  <sodipodi:namedview
     pagecolor="#ffffff"
     bordercolor="#666666"
     borderopacity="1"
     objecttolerance="10"
     gridtolerance="10"
     guidetolerance="10"
     inkscape:pageopacity="0"
     inkscape:pageshadow="2"
     inkscape:window-width="1853"
     inkscape:window-height="1025"
     id="namedview2108"
     showgrid="false"
     inkscape:zoom="23.62863"
     inkscape:cx="17.78912"
     inkscape:cy="8.9531642"
     inkscape:window-x="1987"
     inkscape:window-y="867"
     inkscape:window-maximized="1"
     inkscape:current-layer="svg2106" />
  <path
     style="fill:#000000;stroke:#000000;stroke-width:0.37492606;stroke-miterlimit:4;stroke-dasharray:none;stroke-opacity:1"
     d="M 4.9859606,23.656957 C 4.8108827,23.503062 4.807965,23.491556 4.7172414,22.597003 c -0.05045,-0.497402 -0.079911,-0.915717 -0.065471,-0.929589 0.01443,-0.01388 0.2428839,-0.03386 0.5076663,-0.04446 0.3946344,-0.01578 0.4836786,-0.004 0.4939488,0.06463 0.00692,0.04615 0.02889,0.253738 0.048885,0.461338 0.023481,0.243774 0.061319,0.377456 0.1068264,0.377456 0.084143,0 0.4572884,0.809318 0.4087606,0.886563 -0.042111,0.06705 -0.8465338,0.399596 -0.9665814,0.399596 -0.048569,0 -0.1679666,-0.07001 -0.2653162,-0.155584 z M 7.0596232,22.652209 C 6.9791021,22.475364 6.8914308,22.276394 6.8648097,22.210052 6.8194647,22.097055 6.8902627,22.057111 7.984831,21.578114 8.6274634,21.296891 9.1586777,21.074366 9.165305,21.08362 c 0.059611,0.08321 0.3870511,0.88789 0.3684912,0.905552 -0.043179,0.04109 -2.2256248,0.984575 -2.2775099,0.984575 -0.02764,0 -0.1161374,-0.144692 -0.1966631,-0.321538 z m 3.2727618,-1.48691 C 10.23198,20.945095 10.138621,20.736773 10.1249,20.702363 c -0.01372,-0.03442 0.08521,-0.109731 0.219852,-0.167383 0.211104,-0.09037 0.394594,-0.104871 1.333182,-0.105196 l 1.088384,-3.91e-4 0.03423,0.245463 c 0.01884,0.135004 0.03422,0.352716 0.03422,0.483804 v 0.238345 l -0.344529,0.03935 c -0.189494,0.02164 -0.619257,0.02168 -0.95503,1.12e-4 -0.484382,-0.03112 -0.652829,-0.02182 -0.815406,0.04499 l -0.204906,0.08424 -0.182539,-0.400377 z m 3.526076,-0.276886 c -0.03618,-0.221698 -0.07701,-0.44277 -0.09071,-0.491274 -0.01977,-0.07005 0.07173,-0.108419 0.444747,-0.186517 0.258309,-0.05409 0.778837,-0.196839 1.156732,-0.317232 0.377894,-0.120395 0.701637,-0.218898 0.719427,-0.218898 0.06307,0 0.392254,0.853011 0.34588,0.896292 -0.125724,0.117337 -1.654748,0.56934 -2.330277,0.688866 l -0.18,0.03187 z M 4.4055615,19.644175 4.3073666,18.648595 3.7225225,18.057131 C 3.2103551,17.539172 2.6601313,16.894643 2.6601313,16.812659 c 0,-0.07311 0.8034215,-0.56371 0.8471282,-0.517288 0.026878,0.02855 0.2406778,0.280381 0.4751131,0.559624 0.2344361,0.279245 0.6089099,0.668608 0.8321649,0.865248 0.2923361,0.257491 0.4200261,0.412719 0.4563345,0.554757 0.065451,0.256016 0.2603283,2.228414 0.223735,2.264412 -0.015396,0.01513 -0.2446319,0.04393 -0.5094184,0.06393 l -0.4814302,0.03639 z m 2.7653567,0.758948 C 6.882901,20.285932 6.8664165,20.196283 6.8664165,18.747128 V 17.397294 L 6.4446006,17.07945 C 6.2126031,16.904634 5.7816491,16.514451 5.4869261,16.212374 2.802751,13.461213 2.5148711,9.3182366 4.7949126,6.2533691 5.3550354,5.5004425 6.3319427,4.6130692 7.1790466,4.087743 9.3690664,2.7296145 12.315873,2.387384 14.833656,3.1987677 c 0.720531,0.2322006 1.600949,0.6548562 2.264269,1.086992 0.599322,0.390443 1.795053,1.5540998 2.204656,2.145513 2.232483,3.2234397 1.76422,7.3593693 -1.142751,10.0933693 -1.234563,1.1611 -2.872686,1.962188 -4.609892,2.254359 -0.741693,0.124744 -2.186206,0.154272 -2.789853,0.05703 l -0.34104,-0.05492 -1.4275498,0.807206 c -0.785151,0.443962 -1.4885723,0.820071 -1.5631574,0.835796 -0.074582,0.01574 -0.1904232,0.0062 -0.2574196,-0.02099 z M 10.7793,17.826228 c 1.348062,0.162086 2.582855,0.05307 3.76764,-0.332591 1.1808,-0.384376 2.14042,-0.954182 2.991434,-1.776264 1.015902,-0.981371 1.67516,-2.114287 1.978086,-3.399286 0.543225,-2.304341 -0.264391,-4.8131313 -2.085091,-6.4771573 -1.478491,-1.3512632 -3.362604,-2.0653929 -5.449198,-2.0653929 -0.961601,0 -1.685888,0.109134 -2.5337677,0.3817827 -4.270315,1.3731822 -6.3604205,5.8682065 -4.4720405,9.6176575 0.5131066,1.018792 1.4022199,2.041766 2.3254018,2.675507 0.329196,0.225984 0.481765,0.369153 0.525786,0.493382 0.035552,0.100339 0.062011,0.588046 0.062011,1.142998 v 0.967983 l 1.1454265,-0.650314 1.1454269,-0.650312 z m 6.442356,1.818844 -0.224167,-0.420862 0.263377,-0.148921 c 0.433828,-0.245306 0.922181,-0.573783 1.332865,-0.896517 0.442499,-0.34773 0.400037,-0.356122 0.845941,0.167178 l 0.225946,0.265164 -0.183316,0.154232 c -0.585781,0.492846 -1.813336,1.300583 -1.976559,1.300583 -0.03296,0 -0.160793,-0.189385 -0.284087,-0.420857 z m 2.827389,-2.142767 -0.361217,-0.326841 0.300111,-0.330213 c 0.273182,-0.300583 1.04959,-1.388497 1.10262,-1.545005 0.01992,-0.05883 0.7164,0.269907 0.862455,0.407072 0.05587,0.05246 -0.225413,0.541543 -0.609292,1.059357 -0.357879,0.482737 -0.843957,1.062474 -0.890824,1.062474 -0.02346,0 -0.20518,-0.14708 -0.403853,-0.326844 z M 1.9304987,15.690224 C 1.6480441,15.238525 1.0318246,13.659725 1.0811539,13.514136 c 0.012101,-0.0357 0.2274202,-0.120072 0.4784934,-0.187486 l 0.4564982,-0.122568 0.1620022,0.50028 c 0.089102,0.275154 0.2961751,0.773972 0.4601624,1.10848 l 0.2981582,0.608203 -0.4151651,0.225459 c -0.2283407,0.124002 -0.4291136,0.225456 -0.4461624,0.225456 -0.017053,0 -0.082136,-0.0818 -0.1446421,-0.181736 z M 21.995314,14.564529 c -0.22952,-0.0978 -0.414182,-0.202228 -0.410357,-0.232051 0.0038,-0.02983 0.09568,-0.324233 0.20413,-0.654246 0.108444,-0.33001 0.241948,-0.828725 0.296674,-1.108255 0.09651,-0.493074 0.103737,-0.507414 0.241601,-0.480709 0.07818,0.01512 0.301971,0.04527 0.497364,0.06697 0.273753,0.03041 0.355057,0.06026 0.35437,0.130097 -0.0042,0.430702 -0.609872,2.478785 -0.727924,2.461608 -0.02121,-0.003 -0.226336,-0.08561 -0.455858,-0.183431 z M 0.76581374,12.1452 C 0.68795752,11.537278 0.65806178,10.717464 0.69698787,10.257749 L 0.73828527,9.7700045 1.059738,9.8036795 c 0.1767989,0.018517 0.3992889,0.045359 0.494423,0.059648 l 0.1729698,0.02597 -0.00244,0.8244505 c -0.00134,0.45345 0.017104,0.991016 0.041003,1.194596 l 0.043454,0.370149 -0.2992413,0.03795 c -0.1645823,0.02088 -0.3915095,0.05197 -0.5042819,0.06909 l -0.20504176,0.03114 z M 22.25033,10.461743 c -0.02064,-0.361379 -0.07788,-0.8918583 -0.127213,-1.1788416 -0.04934,-0.2869813 -0.08113,-0.5285382 -0.07063,-0.5367896 0.01048,-0.00819 0.228361,-0.06581 0.484152,-0.1279023 l 0.465069,-0.1128992 0.06004,0.2582521 c 0.109461,0.470852 0.173641,0.9773133 0.211658,1.6702206 l 0.03759,0.685016 H 22.799423 22.287844 Z M 1.3919057,8.8269017 C 1.1476938,8.7714136 0.93715743,8.7154625 0.92404612,8.702563 0.83333589,8.6133342 1.6896681,6.2537947 1.8127574,6.2537947 c 0.1192251,0 0.9038787,0.4225585 0.8804193,0.4741299 C 2.336002,7.5130802 2.1698711,7.9387339 2.0450611,8.3885048 1.9612964,8.6903518 1.8799774,8.9351726 1.8643462,8.9325515 1.848716,8.9299504 1.6361166,8.8823897 1.3919057,8.8269017 Z M 21.656423,7.5828067 C 21.510243,7.2122402 21.087906,6.3711318 20.873116,6.0228015 20.766326,5.8496217 20.678953,5.6960403 20.678953,5.6815087 c 0,-0.01453 0.183484,-0.1464505 0.407742,-0.2931531 0.473544,-0.3097773 0.394497,-0.3496282 0.847438,0.4272237 0.237367,0.4071146 0.82051,1.668446 0.771362,1.668446 -0.0083,0 -0.226741,0.075906 -0.485143,0.1686808 L 21.750535,7.8213862 Z M 2.7596034,5.5682767 C 2.5485782,5.438523 2.3761301,5.3069187 2.3763843,5.2758222 2.3772701,5.1675317 3.1220796,4.2306724 3.5818105,3.7595744 L 4.0447259,3.2852136 4.4008204,3.6324173 4.756914,3.9796207 4.3565759,4.4013454 C 4.136389,4.6332941 3.7882862,5.0443277 3.5830135,5.3147542 3.3777411,5.5851801 3.1948266,5.8059326 3.1765381,5.8053148 3.1582486,5.8046969 2.970628,5.6980296 2.7596034,5.5682767 Z M 19.762167,4.5678982 C 19.478851,4.2461672 18.794425,3.6232686 18.450095,3.373779 L 18.295961,3.2620975 18.553823,2.9265802 c 0.141826,-0.1845347 0.278776,-0.3715842 0.30433,-0.4156657 0.03683,-0.063551 0.109527,-0.02925 0.351004,0.1656463 0.391043,0.3156114 1.391335,1.2688942 1.529124,1.4572618 l 0.105898,0.1447706 -0.390256,0.3158423 -0.390257,0.3158422 z M 5.188109,2.9777507 C 5.0326072,2.7752261 4.9164696,2.5927887 4.9300252,2.5723337 5.0341825,2.4151692 6.3884518,1.5787748 6.8970791,1.3574848 L 7.1875278,1.2311184 7.3883818,1.6874125 7.5892357,2.1437061 7.043091,2.4243735 C 6.4424496,2.7330469 6.0934176,2.9432957 5.7782454,3.1862874 5.6643258,3.2741164 5.5485563,3.3459769 5.5209801,3.3459769 c -0.027579,0 -0.177368,-0.1657018 -0.3328711,-0.3682262 z M 16.955822,2.4432702 C 16.674456,2.2950714 16.201246,2.0805306 15.90425,1.966513 15.607249,1.8524954 15.344155,1.7429106 15.319596,1.722991 c -0.04405,-0.035732 0.222169,-0.94931456 0.276641,-0.94931456 0.162784,0 1.775962,0.70707286 2.196258,0.96264256 l 0.211417,0.1285566 -0.243443,0.4039205 c -0.133894,0.2221565 -0.254611,0.4129218 -0.26826,0.4239234 -0.01364,0.011002 -0.255022,-0.1012508 -0.536387,-0.2494493 z M 8.487309,1.7161312 C 8.4716483,1.6744953 8.3964463,1.4586628 8.3202057,1.2365034 L 8.1815798,0.83257697 8.5613598,0.71857127 C 8.9288188,0.60826439 10.056706,0.37217218 10.543417,0.30368191 l 0.238079,-0.0335025 0.02978,0.23776852 c 0.01639,0.13077264 0.04511,0.35729654 0.06384,0.50338647 0.01873,0.14609 0.01328,0.2657194 -0.01208,0.2658429 -0.301357,0.00148 -1.8876744,0.3377062 -2.24826,0.47654 -0.060721,0.023381 -0.1100025,0.00887 -0.12747,-0.037586 z m 5.11485,-0.3587158 C 13.383317,1.3177054 12.903716,1.2672098 12.536377,1.2452026 L 11.868486,1.2051895 V 0.70191335 0.19863721 l 0.69631,0.0396821 c 0.614149,0.0350001 1.890337,0.20950135 1.948155,0.26638411 0.01971,0.0194015 -0.01757,0.19897199 -0.151715,0.73030888 -0.06068,0.2403935 -0.08618,0.244504 -0.759077,0.1224031 z"
     id="path2686"
     inkscape:connector-curvature="0" />
</svg>
