<?xml version="1.0" encoding="UTF-8" standalone="no"?>
<!-- Created with Inkscape (http://www.inkscape.org/) -->

<svg
   xmlns:dc="http://purl.org/dc/elements/1.1/"
   xmlns:cc="http://creativecommons.org/ns#"
   xmlns:rdf="http://www.w3.org/1999/02/22-rdf-syntax-ns#"
   xmlns:svg="http://www.w3.org/2000/svg"
   xmlns="http://www.w3.org/2000/svg"
   xmlns:sodipodi="http://sodipodi.sourceforge.net/DTD/sodipodi-0.dtd"
   xmlns:inkscape="http://www.inkscape.org/namespaces/inkscape"
   version="1.1"
   id="svg2106"
   width="24"
   height="24"
   viewBox="0 0 24 24"
   sodipodi:docname="signal-app.svg"
   inkscape:version="0.92.3 (2405546, 2018-03-11)">
  <metadata
     id="metadata2112">
    <rdf:RDF>
      <cc:Work
         rdf:about="">
        <dc:format>image/svg+xml</dc:format>
        <dc:type
           rdf:resource="http://purl.org/dc/dcmitype/StillImage" />
        <dc:title></dc:title>
      </cc:Work>
    </rdf:RDF>
  </metadata>
  <defs
     id="defs2110">
    <clipPath
       clipPathUnits="userSpaceOnUse"
       id="clipPath2682">
      <rect
         style="opacity:1;fill:none;fill-opacity:1;stroke:#000000;stroke-width:0.14498146;stroke-miterlimit:4;stroke-dasharray:none;stroke-dashoffset:0;stroke-opacity:1"
         id="rect2684"
         width="21.574905"
         height="22.798611"
         x="1.2189358"
         y="0.71838397" />
    </clipPath>
  </defs>
  <sodipodi:namedview
     pagecolor="#ffffff"
     bordercolor="#666666"
     borderopacity="1"
     objecttolerance="10"
     gridtolerance="10"
     guidetolerance="10"
     inkscape:pageopacity="0"
     inkscape:pageshadow="2"
     inkscape:window-width="1853"
     inkscape:window-height="1025"
     id="namedview2108"
     showgrid="false"
     inkscape:zoom="23.62863"
     inkscape:cx="18.000728"
     inkscape:cy="8.9531642"
     inkscape:window-x="1987"
     inkscape:window-y="867"
     inkscape:window-maximized="1"
     inkscape:current-layer="svg2106" />
  <path
     style="fill:#000000;stroke-width:0.0568339"
     d="M 4.9493978,23.841876 C 4.774344,23.685465 4.7714267,23.67377 4.6807156,22.764591 c -0.050443,-0.505535 -0.0799,-0.930689 -0.065462,-0.944788 0.014428,-0.01411 0.2428505,-0.03441 0.5075964,-0.04519 0.3945801,-0.01604 0.4836121,-0.0041 0.4938808,0.06569 0.00692,0.0469 0.028886,0.257886 0.048878,0.468881 0.023478,0.247759 0.061311,0.383627 0.1068117,0.383627 0.084131,0 0.4572255,0.822551 0.4087044,0.901059 C 6.1390199,23.662013 5.3347076,24 5.2146765,24 5.1661144,24 5.046733,23.928847 4.9493968,23.841872 Z M 7.022775,22.8207 c -0.08051,-0.179737 -0.1681692,-0.38196 -0.1947867,-0.449387 -0.045339,-0.114844 0.02545,-0.155441 1.1198672,-0.64227 0.6425439,-0.285822 1.1736851,-0.511985 1.1803115,-0.50258 0.059603,0.08457 0.3869979,0.902408 0.3684405,0.920359 -0.043173,0.04176 -2.2253185,1.000673 -2.2771964,1.000673 -0.027636,0 -0.1161215,-0.147058 -0.1966361,-0.326795 z m 3.272311,-1.511222 c -0.100391,-0.223805 -0.193737,-0.435533 -0.207457,-0.470505 -0.01372,-0.03498 0.0852,-0.111526 0.219822,-0.17012 0.211076,-0.09185 0.394541,-0.106586 1.333,-0.106916 l 1.088234,-3.98e-4 0.03422,0.249477 c 0.01884,0.137211 0.03422,0.358483 0.03422,0.491714 v 0.242242 l -0.344482,0.03999 c -0.189468,0.02199 -0.619172,0.02203 -0.954899,1.14e-4 -0.484315,-0.03163 -0.652739,-0.02218 -0.815293,0.04572 l -0.204878,0.08562 -0.182515,-0.406924 z m 3.525592,-0.281413 c -0.03618,-0.225323 -0.077,-0.45001 -0.0907,-0.499307 -0.01977,-0.0712 0.07172,-0.110192 0.444686,-0.189567 0.258273,-0.05497 0.77873,-0.200057 1.156573,-0.322419 0.377842,-0.122363 0.70154,-0.222477 0.719328,-0.222477 0.06306,0 0.3922,0.866959 0.345832,0.910947 -0.125707,0.119256 -1.65452,0.578649 -2.329956,0.70013 l -0.179975,0.03239 z M 4.3690786,19.763483 4.2708972,18.751624 3.6861336,18.15049 c -0.5120969,-0.526428 -1.062245,-1.181496 -1.062245,-1.26482 0,-0.07431 0.8033109,-0.572927 0.8470116,-0.525746 0.026874,0.02902 0.2406447,0.284965 0.4750477,0.568774 0.2344039,0.283811 0.6088261,0.67954 0.8320504,0.879395 0.2922959,0.261701 0.4199683,0.419468 0.4562717,0.563828 0.065442,0.260202 0.2602925,2.26485 0.2237042,2.301436 -0.015394,0.01538 -0.2445982,0.04465 -0.5093483,0.06498 L 4.467262,20.77532 Z M 7.1340547,20.53484 C 6.8460771,20.415733 6.8295949,20.324618 6.8295949,18.851769 V 17.479864 L 6.4078371,17.156823 C 6.1758715,16.979149 5.7449768,16.582586 5.4502944,16.27557 2.7664887,13.479426 2.4786484,9.2687097 4.7583761,6.15373 5.3184218,5.3884926 6.2951947,4.4866103 7.142182,3.9526947 c 2.1897184,-1.3803346 5.13612,-1.7281608 7.653556,-0.9035105 0.720432,0.2359972 1.600729,0.6655634 2.263958,1.1047649 0.599239,0.396827 1.794806,1.5795102 2.204352,2.1805933 2.232176,3.2761446 1.763978,7.4796986 -1.142593,10.2584016 -1.234393,1.180084 -2.872291,1.994271 -4.609258,2.291219 -0.741591,0.126783 -2.185905,0.156794 -2.789469,0.05796 l -0.340994,-0.05582 -1.4273529,0.820404 c -0.7850429,0.451221 -1.4883674,0.83348 -1.5629422,0.849462 -0.074572,0.016 -0.190397,0.0063 -0.2573842,-0.02133 z M 10.74194,17.915811 c 1.347877,0.164736 2.5825,0.05394 3.767122,-0.338029 1.180637,-0.39066 2.140125,-0.969783 2.991022,-1.805307 1.015762,-0.997417 1.67493,-2.148856 1.977814,-3.454866 0.54315,-2.3420176 -0.264355,-4.8918283 -2.084804,-6.583062 -1.478288,-1.3733571 -3.362141,-2.0991632 -5.448448,-2.0991632 -0.961469,0 -1.685657,0.1109184 -2.5334196,0.388025 -4.2697273,1.3956345 -6.3595452,5.9641544 -4.4714251,9.7749112 0.513036,1.03545 1.4020269,2.07515 2.3250818,2.719253 0.3291507,0.229679 0.4816987,0.375189 0.5257136,0.501449 0.035547,0.10198 0.062003,0.597661 0.062003,1.161687 v 0.98381 l 1.1452689,-0.660947 1.1452684,-0.660945 z m 6.44147,1.848583 -0.224136,-0.427743 0.26334,-0.151356 c 0.433769,-0.249317 0.922054,-0.583165 1.332682,-0.911175 0.442438,-0.353416 0.399982,-0.361945 0.845825,0.169911 l 0.225914,0.2695 -0.18329,0.156753 c -0.585701,0.500905 -1.813087,1.321849 -1.976287,1.321849 -0.03296,0 -0.160771,-0.192482 -0.284048,-0.427739 z m 2.827,-2.177802 -0.361168,-0.332185 0.30007,-0.335612 c 0.273144,-0.305498 1.049446,-1.4112 1.102468,-1.570267 0.01992,-0.05979 0.716302,0.27432 0.862337,0.413728 0.05586,0.05332 -0.225382,0.550398 -0.609209,1.076678 -0.357829,0.49063 -0.84384,1.079846 -0.890701,1.079846 -0.02346,0 -0.205152,-0.149485 -0.403797,-0.332188 z M 1.8943564,15.744882 C 1.6119407,15.285798 0.99580599,13.681184 1.0451285,13.533214 1.0572275,13.496931 1.2725174,13.411179 1.523556,13.342663 l 0.4564354,-0.124572 0.1619799,0.50846 c 0.08909,0.279653 0.2961344,0.786626 0.4600991,1.126604 l 0.2981172,0.618147 -0.415108,0.229146 c -0.2283093,0.126029 -0.4290545,0.229142 -0.446101,0.229142 -0.017051,0 -0.082125,-0.08314 -0.1446222,-0.184708 z m 20.0620546,-1.1441 c -0.229489,-0.0994 -0.414125,-0.205535 -0.410301,-0.235845 0.0038,-0.03032 0.09567,-0.329535 0.204102,-0.664944 0.108429,-0.335406 0.241915,-0.842275 0.296633,-1.126375 0.0965,-0.501136 0.103723,-0.515711 0.241568,-0.488569 0.07817,0.01537 0.30193,0.04601 0.497296,0.06807 0.273715,0.03091 0.355008,0.06125 0.354321,0.132224 -0.0042,0.437744 -0.609788,2.519315 -0.727824,2.501857 -0.02121,-0.0031 -0.226305,-0.08701 -0.455795,-0.18643 z M 0.72983178,12.141895 c -0.0778455,-0.617861 -0.10773713,-1.45108 -0.0688164,-1.918311 l 0.0412917,-0.4957198 0.32140842,0.034226 c 0.1767746,0.01882 0.399234,0.046101 0.494355,0.060622 l 0.172946,0.026396 -0.00244,0.8379308 c -0.00134,0.460865 0.017102,1.007221 0.040997,1.214129 l 0.043448,0.376201 -0.2992001,0.03857 c -0.1645597,0.02122 -0.3914556,0.05282 -0.50421253,0.07022 l -0.20501349,0.03165 z M 22.211392,10.430913 c -0.02064,-0.367288 -0.07787,-0.9064406 -0.127196,-1.1981163 -0.04933,-0.2916736 -0.08112,-0.53718 -0.07062,-0.5455664 0.01048,-0.00832 0.22833,-0.066886 0.484085,-0.1299935 l 0.465005,-0.1147452 0.06003,0.2624747 c 0.109446,0.4785507 0.173617,0.9932929 0.211629,1.6975297 l 0.03759,0.696216 H 22.760409 22.248901 Z M 1.3558375,8.7693412 C 1.1116592,8.7129458 0.90115189,8.6560799 0.88804239,8.6429695 0.79734464,8.5522818 1.6535589,6.1541625 1.7766313,6.1541625 c 0.1192087,0 0.9037543,0.4294676 0.8802981,0.4818822 C 2.2998039,7.434038 2.1336959,7.8666514 2.008903,8.3237763 1.9251499,8.6305586 1.8438421,8.8793824 1.828213,8.8767184 1.812585,8.8740748 1.6000148,8.8257365 1.3558375,8.7693412 Z M 21.617566,7.5049046 C 21.471407,7.1282791 21.049128,6.2734181 20.834367,5.9193925 20.727592,5.7433811 20.640231,5.5872885 20.640231,5.5725193 c 0,-0.014768 0.183459,-0.148845 0.407686,-0.2979463 0.473479,-0.3148423 0.394443,-0.3553448 0.847321,0.4342091 0.237335,0.4137711 0.820397,1.695726 0.771256,1.695726 -0.0083,0 -0.22671,0.077147 -0.485076,0.1714388 L 21.711666,7.747385 Z M 2.723347,5.4574359 C 2.5123508,5.3255607 2.3399265,5.1918046 2.3401806,5.1601997 2.3410663,5.0501385 3.0857733,4.0979611 3.5454409,3.6191604 L 4.0082926,3.1370435 4.3643381,3.4899242 4.7203827,3.8428046 4.3200997,4.2714247 C 4.0999431,4.5071659 3.7518882,4.9249201 3.5466438,5.1997682 3.3413996,5.4746157 3.1585103,5.6989776 3.1402243,5.6983497 3.1219373,5.6977217 2.9343426,5.5893104 2.723347,5.4574359 Z M 19.723571,4.4407007 C 19.440294,4.1137092 18.755962,3.4806259 18.41168,3.227057 L 18.257567,3.1135495 18.515393,2.7725463 c 0.141807,-0.187552 0.278738,-0.3776598 0.304289,-0.4224621 0.03682,-0.06459 0.109511,-0.029728 0.350955,0.1683547 0.390989,0.3207719 1.391144,1.2896413 1.528914,1.4810888 l 0.105883,0.1471377 -0.390202,0.3210065 -0.390203,0.3210064 z M 5.1515184,2.8245535 C 4.996038,2.6187175 4.8799164,2.4332971 4.8934701,2.4125077 4.9976131,2.2527734 6.351696,1.4027035 6.8602533,1.1777953 L 7.150662,1.0493628 7.3514884,1.5131175 7.5523146,1.9768718 7.0062451,2.2621282 C 6.4056864,2.5758486 6.0567024,2.7895351 5.7415736,3.0364998 5.6276696,3.1257649 5.5119161,3.1988003 5.4843437,3.1988003 c -0.027575,0 -0.1773436,-0.1684111 -0.3328253,-0.3742468 z M 16.917612,2.2813339 C 16.636285,2.130712 16.16314,1.9126633 15.866185,1.7967815 15.569225,1.6808996 15.306167,1.5695231 15.281612,1.5492778 c -0.04404,-0.036316 0.222138,-0.96483637 0.276602,-0.96483637 0.162762,0 1.775718,0.71863387 2.195956,0.97838227 l 0.211388,0.1306586 -0.243409,0.4105248 C 17.588273,2.3297959 17.467573,2.5236804 17.453926,2.5348618 17.440283,2.5460436 17.198939,2.4319555 16.917612,2.2813339 Z M 8.4502643,1.5423058 C 8.4346058,1.4999891 8.3594141,1.2806277 8.283184,1.0548358 L 8.1445772,0.644305 8.5243049,0.52843526 C 8.8917134,0.41632481 10.019445,0.17637236 10.50609,0.10676224 l 0.238046,-0.0340503 0.02978,0.24165616 c 0.01639,0.13291084 0.0451,0.36313855 0.06383,0.51161713 0.01873,0.14847863 0.01328,0.27006397 -0.01208,0.27018957 -0.301316,0.0015 -1.8874152,0.3432278 -2.2479512,0.4843317 -0.060713,0.023763 -0.1099874,0.00901 -0.1274525,-0.038201 z M 13.564411,1.1777248 C 13.345599,1.1373655 12.866064,1.0860443 12.498776,1.0636773 L 11.830977,1.0230099 V 0.51150498 0 l 0.696214,0.04033098 c 0.614064,0.03557238 1.890077,0.21292681 1.947887,0.27073963 0.01971,0.0197187 -0.01757,0.20222529 -0.151695,0.74224989 -0.06067,0.2443239 -0.08617,0.2485016 -0.758972,0.1244043 z"
     id="path2686"
     inkscape:connector-curvature="0" />
</svg>
