<?xml version="1.0" encoding="UTF-8" standalone="no"?>
<!-- Created with Inkscape (http://www.inkscape.org/) -->

<svg
   xmlns:dc="http://purl.org/dc/elements/1.1/"
   xmlns:cc="http://creativecommons.org/ns#"
   xmlns:rdf="http://www.w3.org/1999/02/22-rdf-syntax-ns#"
   xmlns:svg="http://www.w3.org/2000/svg"
   xmlns="http://www.w3.org/2000/svg"
   xmlns:xlink="http://www.w3.org/1999/xlink"
   xmlns:sodipodi="http://sodipodi.sourceforge.net/DTD/sodipodi-0.dtd"
   xmlns:inkscape="http://www.inkscape.org/namespaces/inkscape"
   width="793.70081"
   height="1122.5197"
   viewBox="0 0 793.70081 1122.5197"
   version="1.1"
   id="svg4561"
   sodipodi:docname="FCUPwithpipea.svg"
   inkscape:version="0.92.3 (2405546, 2018-03-11)">
  <sodipodi:namedview
     id="base"
     pagecolor="#ffffff"
     bordercolor="#666666"
     borderopacity="1.0"
     inkscape:pageopacity="0.0"
     inkscape:pageshadow="2"
     inkscape:zoom="3.9999998"
     inkscape:cx="94.108427"
     inkscape:cy="2.7061014"
     inkscape:document-units="px"
     inkscape:current-layer="layer1"
     showgrid="false"
     inkscape:window-width="1853"
     inkscape:window-height="1145"
     inkscape:window-x="67"
     inkscape:window-y="27"
     inkscape:window-maximized="1"
     units="px">
    <inkscape:grid
       type="xygrid"
       id="grid8021" />
  </sodipodi:namedview>
  <defs
     id="defs4555">
    <linearGradient
       inkscape:collect="always"
       id="linearGradient7988">
      <stop
         style="stop-color:#ff2a2a;stop-opacity:1;"
         offset="0"
         id="stop7984" />
      <stop
         style="stop-color:#ff2a2a;stop-opacity:0;"
         offset="1"
         id="stop7986" />
    </linearGradient>
    <linearGradient
       inkscape:collect="always"
       id="linearGradient8134">
      <stop
         style="stop-color:#000000;stop-opacity:1;"
         offset="0"
         id="stop8130" />
      <stop
         style="stop-color:#000000;stop-opacity:0;"
         offset="1"
         id="stop8132" />
    </linearGradient>
    <linearGradient
       inkscape:collect="always"
       xlink:href="#linearGradient8134"
       id="linearGradient8136"
       x1="0.79374999"
       y1="281.8526"
       x2="24.870832"
       y2="281.8526"
       gradientUnits="userSpaceOnUse"
       gradientTransform="matrix(0.0555555,0,0,221.66947,289.91939,-62596.848)" />
    <linearGradient
       inkscape:collect="always"
       xlink:href="#linearGradient7988"
       id="linearGradient7990"
       x1="11.357927"
       y1="1085.7031"
       x2="25.347658"
       y2="1085.7031"
       gradientUnits="userSpaceOnUse"
       gradientTransform="matrix(1.7710654,0,0,2.8778465,-18.137623,-2019.9159)" />
  </defs>
  <metadata
     id="metadata4558">
    <rdf:RDF>
      <cc:Work
         rdf:about="">
        <dc:format>image/svg+xml</dc:format>
        <dc:type
           rdf:resource="http://purl.org/dc/dcmitype/StillImage" />
        <dc:title />
      </cc:Work>
    </rdf:RDF>
  </metadata>
  <g
     inkscape:label="Layer 1"
     inkscape:groupmode="layer"
     id="layer1">
    <path
       style="opacity:1;fill:url(#linearGradient7990);fill-opacity:1;stroke:#100000;stroke-width:0.1;stroke-linecap:square;stroke-miterlimit:4;stroke-dasharray:none;stroke-opacity:1"
       d="m 3.2879796,1122.4204 c -1.2852323,-0.084 -1.5029316,-0.1209 -1.1719195,-0.2014 0.1791184,-0.043 0.5666595,-0.2704 0.7975976,-0.4662 1.6785753,-1.4252 3.0788061,-5.7048 3.6656823,-11.2038 0.195042,-1.8277 0.2763907,-3.29 0.297677,-5.351 0.036502,-3.535 -0.1932037,-6.6349 -0.7107832,-9.5922 -0.3826264,-2.1864 -0.8317616,-3.8473 -1.4551449,-5.3815 -0.7283328,-1.7928 -1.587264,-2.9311 -2.4746797,-3.2803 -0.1952031,-0.078 -0.2017864,-0.084 -0.1106923,-0.1093 0.1205222,-0.035 1.2221931,-0.1066 2.1584862,-0.1411 1.1404741,-0.043 2.8140282,0.053 4.2616262,0.2503 5.8683487,0.7943 11.1733747,3.604 14.5144387,7.6873 0.570693,0.6973 0.880617,1.1339 1.370907,1.931 1.558755,2.5337 2.323424,5.1761 2.323424,8.0286 0,2.2956 -0.525865,4.5248 -1.575169,6.6774 -0.209551,0.4298 -0.747136,1.3504 -1.095266,1.8757 -2.376667,3.5854 -6.32174,6.4653 -10.9765,8.0124 -2.645862,0.8797 -5.4712766,1.3212 -8.3253487,1.3007 -0.5555337,0 -1.2279842,-0.029 -1.4943364,-0.037 z"
       id="path7954"
       inkscape:connector-curvature="0" />
    <ellipse
       style="opacity:1;fill:none;fill-opacity:1;stroke:#100000;stroke-width:0.01;stroke-miterlimit:4;stroke-dasharray:none;stroke-opacity:1"
       id="path5763"
       cx="1.4687502"
       cy="1104.5706"
       rx="5.3938155"
       ry="17.737566" />
    <path
       style="opacity:1;fill:#ff0000;fill-opacity:1;stroke:#100000;stroke-width:0.1;stroke-miterlimit:4;stroke-dasharray:none;stroke-opacity:1"
       d="m -3.4638833,1099.367 c 0.01624,-0.077 0.059926,-0.436 0.09708,-0.7969 0.1854184,-1.8013 0.5258377,-3.7387 0.9499126,-5.4062 1.0059446,-3.9555 2.51391862,-6.281 4.072973,-6.2813 0.7660926,-10e-5 1.7048315,0.7373 2.3701022,1.8616 1.1741882,1.9845 2.0908626,5.3614 2.5739082,9.4821 0.052385,0.4469 0.0955,0.918 0.095813,1.0469 l 5.669e-4,0.2344 h -5.094941 -5.094941 z"
       id="path5767"
       inkscape:connector-curvature="0" />
    <path
       style="opacity:1;fill:#ff0000;fill-opacity:1;stroke:#100000;stroke-width:0.1;stroke-miterlimit:4;stroke-dasharray:none;stroke-opacity:1"
       d="m 0.8923237,1122.0693 c -1.9504533,-0.9228 -3.6344723,-5.5142 -4.280598,-11.6711 l -0.080348,-0.7656 h 5.082547 5.0825471 l -5.625e-4,0.2031 c -3.125e-4,0.1117 -0.043324,0.5688 -0.095583,1.0156 -0.7019438,6.0025 -2.2939508,10.2889 -4.1370302,11.1386 -0.1798115,0.083 -0.34319,0.1771 -0.3630636,0.2092 -0.019874,0.032 -0.210255,0.058 -0.42307,0.058 -0.3004544,0 -0.4758687,-0.042 -0.7848344,-0.1882 z"
       id="path5769"
       inkscape:connector-curvature="0" />
  </g>
</svg>
